<svg width="87" height="23" viewBox="0 0 87 23" fill="none" xmlns="http://www.w3.org/2000/svg">
<path d="M86.0856 12.0351C86.6573 11.4355 86.6347 10.4861 86.0351 9.91439L76.2647 0.598377C75.6651 0.026699 74.7156 0.0493055 74.1439 0.64887C73.5723 1.24843 73.5949 2.19791 74.1944 2.76959L82.8793 11.0505L74.5984 19.7353C74.0267 20.3349 74.0493 21.2844 74.6489 21.8561C75.2484 22.4277 76.1979 22.4051 76.7696 21.8056L86.0856 12.0351ZM1.0357 14.4996L4.0357 14.4281L3.9643 11.429L0.964296 11.5004L1.0357 14.4996ZM10.0357 14.2853L16.0357 14.1424L15.9643 11.1433L9.9643 11.2861L10.0357 14.2853ZM22.0357 13.9996L28.0357 13.8567L27.9643 10.8576L21.9643 11.0004L22.0357 13.9996ZM34.0357 13.7139L40.0357 13.571L39.9643 10.5719L33.9643 10.7147L34.0357 13.7139ZM46.0357 13.4281L52.0357 13.2853L51.9643 10.2861L45.9643 10.429L46.0357 13.4281ZM58.0357 13.1424L64.0357 12.9996L63.9643 10.0004L57.9643 10.1433L58.0357 13.1424ZM70.0357 12.8567L76.0357 12.7139L75.9643 9.71471L69.9643 9.85757L70.0357 12.8567ZM82.0357 12.571L85.0357 12.4996L84.9643 9.50043L81.9643 9.57185L82.0357 12.571Z" fill="#D9D9D9"/>
<path d="M86.0856 12.0351C86.6573 11.4355 86.6347 10.4861 86.0351 9.91439L76.2647 0.598377C75.6651 0.026699 74.7156 0.0493055 74.1439 0.64887C73.5723 1.24843 73.5949 2.19791 74.1944 2.76959L82.8793 11.0505L74.5984 19.7353C74.0267 20.3349 74.0493 21.2844 74.6489 21.8561C75.2484 22.4277 76.1979 22.4051 76.7696 21.8056L86.0856 12.0351ZM1.0357 14.4996L4.0357 14.4281L3.9643 11.429L0.964296 11.5004L1.0357 14.4996ZM10.0357 14.2853L16.0357 14.1424L15.9643 11.1433L9.9643 11.2861L10.0357 14.2853ZM22.0357 13.9996L28.0357 13.8567L27.9643 10.8576L21.9643 11.0004L22.0357 13.9996ZM34.0357 13.7139L40.0357 13.571L39.9643 10.5719L33.9643 10.7147L34.0357 13.7139ZM46.0357 13.4281L52.0357 13.2853L51.9643 10.2861L45.9643 10.429L46.0357 13.4281ZM58.0357 13.1424L64.0357 12.9996L63.9643 10.0004L57.9643 10.1433L58.0357 13.1424ZM70.0357 12.8567L76.0357 12.7139L75.9643 9.71471L69.9643 9.85757L70.0357 12.8567ZM82.0357 12.571L85.0357 12.4996L84.9643 9.50043L81.9643 9.57185L82.0357 12.571Z" fill="white"/>
</svg>
