<svg width="13" height="12" viewBox="0 0 13 12" fill="none" xmlns="http://www.w3.org/2000/svg">
<g clip-path="url(#clip0_1_51)">
<path d="M7.36667 1.6C9.99923 1.6 12.1333 3.56995 12.1333 6C12.1333 8.43005 9.99923 10.4 7.36667 10.4C4.73412 10.4 2.60001 8.43005 2.60001 6C2.60001 3.56995 4.73412 1.6 7.36667 1.6Z" fill="white"/>
<path d="M6.5 0C2.91595 0 0 2.69165 0 6C0 9.3084 2.91595 12 6.5 12C10.0841 12 13 9.3084 13 6C13 2.69165 10.084 0 6.5 0ZM6.92281 9.55994C6.61403 9.60749 5.99954 9.72617 5.68751 9.75C5.42338 9.77023 5.17414 9.63063 5.0222 9.43029C4.86986 9.23 4.83336 8.97366 4.9238 8.74366L6.15247 5.62502H4.87499C4.8739 4.97518 5.40196 4.49737 6.07733 4.31399C6.39965 4.22646 7.00013 4.10667 7.3125 4.12503C7.49964 4.13602 7.82588 4.2444 7.97779 4.44474C8.13014 4.64505 8.16666 4.90141 8.07622 5.13139L6.84753 8.25006H8.12463C8.12488 8.89914 7.61651 9.45326 6.92281 9.55994ZM7.3125 3.75001C6.86375 3.75001 6.5 3.41419 6.5 3.00001C6.5 2.58578 6.86375 2.25 7.3125 2.25C7.76125 2.25 8.125 2.58578 8.125 3.00001C8.125 3.41421 7.76125 3.75001 7.3125 3.75001Z" fill="url(#paint0_linear_1_51)"/>
</g>
<defs>
<linearGradient id="paint0_linear_1_51" x1="6.5" y1="0" x2="6.5" y2="12" gradientUnits="userSpaceOnUse">
<stop stop-color="#DB00FF"/>
<stop offset="1" stop-color="#F60A33"/>
</linearGradient>
<clipPath id="clip0_1_51">
<rect width="13" height="12" fill="white" transform="matrix(1 0 0 -1 0 12)"/>
</clipPath>
</defs>
</svg>
