<svg width="15" height="14" viewBox="0 0 15 14" fill="none" xmlns="http://www.w3.org/2000/svg">
<g clip-path="url(#clip0_36_113)">
<path d="M13.9311 11.2468L11.7655 10.2283L10.5889 8.14338C10.5172 8.07751 10.4238 8.03575 10.3236 8.02471C10.2235 8.01368 10.1222 8.03399 10.0358 8.08244C9.43293 8.42112 8.98313 8.95171 8.77019 9.57541C8.66238 9.88881 8.26863 10.0324 7.96394 9.86269L7.95925 9.85834L7.95456 9.85398C6.49057 9.03866 5.26542 7.90102 4.38738 6.5416C4.38738 6.53724 4.38269 6.53289 4.38269 6.53289C4.19519 6.24997 4.34988 5.88434 4.68738 5.78423C5.36046 5.58895 5.93271 5.17067 6.29519 4.60901C6.403 4.44361 6.37488 4.23468 6.22956 4.09539L3.98425 3.0464L2.88738 0.991931C2.81563 0.926061 2.72227 0.884301 2.62208 0.873263C2.5219 0.862225 2.4206 0.882541 2.33425 0.930993C1.92556 1.15868 1.58432 1.47722 1.34128 1.85791C1.09824 2.23861 0.961043 2.66948 0.942065 3.11169V3.11604C0.937378 3.15956 0.937378 3.20309 0.937378 3.24662C0.937378 3.30756 0.942065 3.36414 0.946753 3.42073C1.00254 5.14431 1.53352 6.8258 2.48894 8.30443C3.3655 9.66247 4.59363 10.8029 6.05613 11.6168L6.06081 11.6212C7.67331 12.5222 9.51081 13.014 11.3905 13.0532C11.428 13.0532 11.4655 13.0576 11.503 13.0576H11.7655V13.0489C12.2212 13.013 12.6613 12.8776 13.0499 12.6537C13.4385 12.4298 13.7645 12.1237 14.0014 11.7605C14.1046 11.5951 14.0764 11.3818 13.9311 11.2468Z" fill="#EF0935"/>
<path d="M6.30029 4.60903C6.12217 4.88324 5.89248 5.12264 5.62529 5.32287L1.56592 1.55345C1.78154 1.30534 2.03936 1.09641 2.33467 0.931013C2.51279 0.830901 2.74248 0.857017 2.88779 0.99195L6.23467 4.09541C6.37998 4.2347 6.4081 4.44362 6.30029 4.60903ZM10.0315 8.08246C10.2097 7.98235 10.4394 8.00847 10.5847 8.1434L13.9269 11.2556C14.0769 11.3905 14.105 11.5994 13.9972 11.7648C13.819 12.039 13.5894 12.2784 13.3222 12.4787L9.26279 8.70925C9.47842 8.46115 9.73623 8.24787 10.0315 8.08246Z" fill="#DC146A"/>
</g>
<defs>
<clipPath id="clip0_36_113">
<rect width="15" height="13.9286" fill="white"/>
</clipPath>
</defs>
</svg>
